<?xml version="1.0" standalone="no"?><svg xmlns="http://www.w3.org/2000/svg" viewBox="0 0 1440 320"><path fill="#ffffff" fill-opacity="1" d="M0,128L30,112C60,96,120,64,180,85.3C240,107,300,181,360,192C420,203,480,149,540,133.3C600,117,660,139,720,176C780,213,840,267,900,250.7C960,235,1020,149,1080,149.3C1140,149,1200,235,1260,240C1320,245,1380,171,1410,133.3L1440,96L1440,320L1410,320C1380,320,1320,320,1260,320C1200,320,1140,320,1080,320C1020,320,960,320,900,320C840,320,780,320,720,320C660,320,600,320,540,320C480,320,420,320,360,320C300,320,240,320,180,320C120,320,60,320,30,320L0,320Z"></path></svg>